<svg width="65" height="104" viewBox="0 0 65 104" fill="none" xmlns="http://www.w3.org/2000/svg">
<path d="M39.576 18.0659H8C4.13401 18.0659 1 21.1999 1 25.0659V95.3849C1 99.2509 4.13401 102.385 8 102.385H39.576C43.442 102.385 46.576 99.2509 46.576 95.3849V25.0659C46.576 21.1999 43.442 18.0659 39.576 18.0659Z" stroke="#2A5CE2" stroke-width="2" stroke-miterlimit="10"/>
<path d="M20.9871 23.6816H11.3921C8.63067 23.6816 6.39209 25.9202 6.39209 28.6816V39.1956C6.39209 41.9571 8.63067 44.1956 11.3921 44.1956H20.9871C23.7485 44.1956 25.9871 41.9571 25.9871 39.1956V28.6816C25.9871 25.9202 23.7485 23.6816 20.9871 23.6816Z" stroke="#2A5CE2" stroke-width="1.5" stroke-miterlimit="10"/>
<path opacity="0.98" d="M12.68 32.7961C14.3904 32.7961 15.777 31.4095 15.777 29.6991C15.777 27.9886 14.3904 26.6021 12.68 26.6021C10.9696 26.6021 9.58301 27.9886 9.58301 29.6991C9.58301 31.4095 10.9696 32.7961 12.68 32.7961Z" fill="#2A5CE2" stroke="#2A5CE2"/>
<path opacity="0.98" d="M12.68 40.9547C14.3904 40.9547 15.777 39.5682 15.777 37.8577C15.777 36.1473 14.3904 34.7607 12.68 34.7607C10.9696 34.7607 9.58301 36.1473 9.58301 37.8577C9.58301 39.5682 10.9696 40.9547 12.68 40.9547Z" fill="#2A5CE2" stroke="#2A5CE2"/>
<path opacity="0.21" d="M20.2942 36.1549C21.2906 36.1549 22.0982 35.3472 22.0982 34.3509C22.0982 33.3546 21.2906 32.5469 20.2942 32.5469C19.2979 32.5469 18.4902 33.3546 18.4902 34.3509C18.4902 35.3472 19.2979 36.1549 20.2942 36.1549Z" fill="#2A5CE2" stroke="#2A5CE2"/>
<path opacity="0.21" d="M20.2941 30.6458C20.9988 30.6458 21.5701 30.0745 21.5701 29.3698C21.5701 28.665 20.9988 28.0938 20.2941 28.0938C19.5894 28.0938 19.0181 28.665 19.0181 29.3698C19.0181 30.0745 19.5894 30.6458 20.2941 30.6458Z" fill="#2A5CE2" stroke="#2A5CE2"/>
<path opacity="0.98" d="M29.569 69.4506C29.3583 69.9425 29.0979 70.4116 28.7919 70.8506C28.5044 71.2897 28.169 71.6955 27.7919 72.0606C27.449 72.4032 26.9904 72.6052 26.506 72.6266C26.0953 72.609 25.6918 72.5129 25.3171 72.3436C24.9127 72.1676 24.478 72.0714 24.0371 72.0606C23.5843 72.0698 23.1376 72.1659 22.7211 72.3436C22.3619 72.5065 21.9777 72.6079 21.5849 72.6436C21.3376 72.6408 21.0936 72.5878 20.8674 72.4877C20.6412 72.3877 20.4375 72.2427 20.269 72.0616C19.8749 71.6842 19.5239 71.2643 19.2221 70.8096C18.75 70.1327 18.3767 69.3919 18.114 68.6096C17.8151 67.7677 17.6584 66.882 17.6501 65.9886C17.6271 65.1136 17.8442 64.249 18.278 63.4886C18.595 62.9392 19.0482 62.4808 19.5939 62.1577C20.1325 61.8362 20.7468 61.6637 21.374 61.6577C21.8474 61.6857 22.3127 61.7939 22.7499 61.9776C23.0986 62.1312 23.4657 62.2392 23.842 62.2986C24.257 62.2122 24.6625 62.0856 25.0529 61.9207C25.5748 61.7082 26.1358 61.6087 26.6989 61.6286C27.2351 61.6426 27.7611 61.7799 28.2358 62.0298C28.7104 62.2797 29.121 62.6355 29.436 63.0696C29.0025 63.3128 28.6327 63.6548 28.3561 64.0678C28.0796 64.4808 27.9044 64.9532 27.8447 65.4466C27.785 65.94 27.8424 66.4406 28.0124 66.9077C28.1824 67.3747 28.46 67.7951 28.8229 68.1346C29.1133 68.413 29.4522 68.6357 29.8229 68.7916C29.7429 69.0246 29.6581 69.2476 29.5681 69.4626L29.569 69.4506ZM26.78 58.4756C26.7703 59.2231 26.4895 59.9416 25.9899 60.4976C25.7329 60.8472 25.3955 61.1297 25.006 61.3212C24.6166 61.5127 24.1869 61.6076 23.7531 61.5977C23.7415 61.5068 23.7354 61.4152 23.7351 61.3236C23.7605 60.564 24.0582 59.8389 24.5739 59.2806C24.8601 58.9594 25.2078 58.6986 25.5961 58.5136C25.9597 58.326 26.3572 58.2135 26.7651 58.1826C26.7753 58.2789 26.7802 58.3758 26.78 58.4727V58.4756Z" fill="#FFA64E"/>
<path d="M61.878 11.0481C61.327 10.8879 60.7882 10.6882 60.266 10.4504C56.5618 8.75163 54.7215 5.38727 54.4344 1.27229C54.4285 1.1901 54.3938 1.11262 54.3365 1.0534C54.2792 0.994184 54.2029 0.956994 54.121 0.948347C54.039 0.9397 53.9567 0.960145 53.8883 1.0061C53.8199 1.05206 53.7698 1.1206 53.7469 1.19973C52.4218 5.80558 49.3084 8.83331 44.45 9.21502C44.3683 9.22157 44.2915 9.25646 44.2328 9.31366C44.1742 9.37085 44.1374 9.44676 44.1288 9.52823C44.1202 9.6097 44.1403 9.69161 44.1858 9.75979C44.2312 9.82797 44.299 9.87812 44.3775 9.90157C49.0066 11.2734 51.4679 14.8824 51.8024 19.6261C51.8083 19.7083 51.843 19.7858 51.9003 19.845C51.9575 19.9042 52.0338 19.9414 52.1158 19.9501C52.1977 19.9587 52.2801 19.9383 52.3485 19.8923C52.4169 19.8464 52.467 19.7778 52.4899 19.6987C52.8565 18.1809 53.552 16.7621 54.5273 15.5427C55.5027 14.3233 56.734 13.3331 58.1342 12.6421C59.2954 12.1281 60.5375 11.8214 61.8045 11.7356C61.8861 11.729 61.9629 11.6941 62.0216 11.6369C62.0802 11.5797 62.117 11.5038 62.1256 11.4224C62.1342 11.3409 62.1141 11.259 62.0687 11.1908C62.0232 11.1226 61.9554 11.0725 61.8769 11.049L61.878 11.0481Z" fill="#FFA64E"/>
<path opacity="0.79" d="M62.2174 22.5523C61.5894 22.2667 61.0421 21.8296 60.6246 21.2804C60.207 20.7312 59.9323 20.0869 59.8251 19.4054C59.8103 19.332 59.7726 19.2652 59.7173 19.2148C59.662 19.1644 59.592 19.133 59.5176 19.1252C59.4432 19.1173 59.3682 19.1334 59.3036 19.1712C59.239 19.2089 59.1881 19.2663 59.1584 19.335C58.9069 19.9762 58.5024 20.5462 57.9802 20.9952C57.4579 21.4443 56.8337 21.7588 56.1621 21.9113C56.0907 21.9277 56.0263 21.9659 55.9778 22.0206C55.9292 22.0754 55.899 22.144 55.8913 22.2167C55.8836 22.2895 55.8989 22.3629 55.9349 22.4266C55.971 22.4903 56.026 22.5411 56.0924 22.572C56.7177 22.8613 57.2628 23.2994 57.6798 23.848C58.0968 24.3966 58.3732 25.0389 58.4847 25.7189C58.4994 25.7923 58.5372 25.859 58.5925 25.9094C58.6478 25.9598 58.7178 25.9913 58.7922 25.9991C58.8666 26.007 58.9416 25.9908 59.0062 25.9531C59.0708 25.9154 59.1217 25.8579 59.1514 25.7893C59.5166 24.8669 60.1894 24.0991 61.0559 23.6159V23.6159C61.9745 23.1193 62.3764 23.3337 62.4213 22.9088C62.429 22.8355 62.4135 22.7617 62.3769 22.6977C62.3403 22.6337 62.2845 22.5828 62.2174 22.5523V22.5523Z" fill="#FFA64E"/>
</svg>
